#usda 1.0
(
    "FANUC M-10iD/12 visual and kinematic simulation reference imported from official fanuc_description commit fb40c9803a826ba68c7c8e28ba904a25efa7fcd2"
    customLayerData = {
        string creator = "URDF USD Converter v0.1.3"
    }
    defaultPrim = "fanuc_m10id12_reference"
    kilogramsPerUnit = 1
    metersPerUnit = 1
    upAxis = "Z"
)

def Xform "fanuc_m10id12_reference" (
    prepend apiSchemas = ["GeomModelAPI"]
    assetInfo = {
        string name = "fanuc_m10id12_reference"
    }
    kind = "component"
    prepend payload = @./Payload/Contents.usda@
)
{
    float3[] extentsHint = [(-0.206, -0.24575, 0), (0.84999996, 0.189345, 1.391), (3.4028235e38, 3.4028235e38, 3.4028235e38), (-3.4028235e38, -3.4028235e38, -3.4028235e38), (3.4028235e38, 3.4028235e38, 3.4028235e38), (-3.4028235e38, -3.4028235e38, -3.4028235e38), (-0.206, -0.24575, 0), (0.84999996, 0.189345, 1.391)]
}

def PhysicsScene "PhysicsScene" (
    prepend payload = @./Payload/Contents.usda@</PhysicsScene>
)
{
}

